<svg width="400" height="300" viewBox="0 0 400 300" xmlns="http://www.w3.org/2000/svg">
  <!-- Background -->
  <rect width="400" height="300" fill="#f3f4f6" rx="20"/>
  
  <!-- Calculator Body -->
  <rect x="50" y="50" width="300" height="200" fill="#1f2937" rx="15"/>
  
  <!-- Screen -->
  <rect x="70" y="70" width="260" height="40" fill="#10b981" rx="5"/>
  <text x="200" y="95" text-anchor="middle" fill="white" font-family="monospace" font-size="16">123.45</text>
  
  <!-- Buttons Grid -->
  <!-- Row 1 -->
  <rect x="70" y="130" width="50" height="40" fill="#6b7280" rx="5"/>
  <text x="95" y="155" text-anchor="middle" fill="white" font-family="monospace" font-size="14">7</text>
  
  <rect x="130" y="130" width="50" height="40" fill="#6b7280" rx="5"/>
  <text x="155" y="155" text-anchor="middle" fill="white" font-family="monospace" font-size="14">8</text>
  
  <rect x="190" y="130" width="50" height="40" fill="#6b7280" rx="5"/>
  <text x="215" y="155" text-anchor="middle" fill="white" font-family="monospace" font-size="14">9</text>
  
  <rect x="250" y="130" width="50" height="40" fill="#ef4444" rx="5"/>
  <text x="275" y="155" text-anchor="middle" fill="white" font-family="monospace" font-size="14">รท</text>
  
  <!-- Row 2 -->
  <rect x="70" y="180" width="50" height="40" fill="#6b7280" rx="5"/>
  <text x="95" y="205" text-anchor="middle" fill="white" font-family="monospace" font-size="14">4</text>
  
  <rect x="130" y="180" width="50" height="40" fill="#6b7280" rx="5"/>
  <text x="155" y="205" text-anchor="middle" fill="white" font-family="monospace" font-size="14">5</text>
  
  <rect x="190" y="180" width="50" height="40" fill="#6b7280" rx="5"/>
  <text x="215" y="205" text-anchor="middle" fill="white" font-family="monospace" font-size="14">6</text>
  
  <rect x="250" y="180" width="50" height="40" fill="#ef4444" rx="5"/>
  <text x="275" y="205" text-anchor="middle" fill="white" font-family="monospace" font-size="14">ร</text>
  
  <!-- Row 3 -->
  <rect x="70" y="230" width="50" height="40" fill="#6b7280" rx="5"/>
  <text x="95" y="255" text-anchor="middle" fill="white" font-family="monospace" font-size="14">1</text>
  
  <rect x="130" y="230" width="50" height="40" fill="#6b7280" rx="5"/>
  <text x="155" y="255" text-anchor="middle" fill="white" font-family="monospace" font-size="14">2</text>
  
  <rect x="190" y="230" width="50" height="40" fill="#6b7280" rx="5"/>
  <text x="215" y="255" text-anchor="middle" fill="white" font-family="monospace" font-size="14">3</text>
  
  <rect x="250" y="230" width="50" height="40" fill="#ef4444" rx="5"/>
  <text x="275" y="255" text-anchor="middle" fill="white" font-family="monospace" font-size="14">-</text>
  
  <!-- Bottom Row -->
  <rect x="70" y="280" width="50" height="40" fill="#6b7280" rx="5"/>
  <text x="95" y="305" text-anchor="middle" fill="white" font-family="monospace" font-size="14">0</text>
  
  <rect x="130" y="280" width="50" height="40" fill="#6b7280" rx="5"/>
  <text x="155" y="305" text-anchor="middle" fill="white" font-family="monospace" font-size="14">.</text>
  
  <rect x="190" y="280" width="50" height="40" fill="#10b981" rx="5"/>
  <text x="215" y="305" text-anchor="middle" fill="white" font-family="monospace" font-size="14">=</text>
  
  <rect x="250" y="280" width="50" height="40" fill="#ef4444" rx="5"/>
  <text x="275" y="305" text-anchor="middle" fill="white" font-family="monospace" font-size="14">+</text>
  
  <!-- Title -->
  <text x="200" y="25" text-anchor="middle" fill="#374151" font-family="Arial, sans-serif" font-size="18" font-weight="bold">Graphing Calculator</text>
</svg>
